<?xml version="1.0" encoding="UTF-8" standalone="no"?>
<!DOCTYPE svg PUBLIC "-//W3C//DTD SVG 1.1//EN"
 "http://www.w3.org/Graphics/SVG/1.1/DTD/svg11.dtd">
<!-- Generated by graphviz version 2.34.0 (20140523.2023)
 -->
<!-- Title: G Pages: 1 -->
<svg width="338pt" height="2239pt"
 viewBox="0.00 0.00 338.00 2239.00" xmlns="http://www.w3.org/2000/svg" xmlns:xlink="http://www.w3.org/1999/xlink">
<g id="graph0" class="graph" transform="scale(1 1) rotate(0) translate(4 2235)">
<title>G</title>
<polygon fill="white" stroke="white" points="-4,4 -4,-2235 334,-2235 334,4 -4,4"/>
<g id="clust1" class="cluster"><title>cluster_Global</title>
<path fill="none" stroke="gray" d="M24,-44C24,-44 310,-44 310,-44 316,-44 322,-50 322,-56 322,-56 322,-2211 322,-2211 322,-2217 316,-2223 310,-2223 310,-2223 24,-2223 24,-2223 18,-2223 12,-2217 12,-2211 12,-2211 12,-56 12,-56 12,-50 18,-44 24,-44"/>
<text text-anchor="middle" x="167" y="-2208" font-family="Times,serif" font-size="11.00" fill="gray">Global</text>
</g>
<!-- \\AdminRenderer -->
<g id="node1" class="node"><title>\\AdminRenderer</title>
<polygon fill="none" stroke="black" points="300.366,-2194 213.634,-2194 213.634,-2158 300.366,-2158 300.366,-2194"/>
<text text-anchor="start" x="234.398" y="-2178.2" font-family="Times,serif" font-size="11.00">«abstract»</text>
<text text-anchor="start" x="221.567" y="-2165" font-family="Times,serif" font-size="11.00">AdminRenderer</text>
</g>
<!-- \\AccountApi -->
<g id="node2" class="node"><title>\\AccountApi</title>
<polygon fill="none" stroke="black" points="291.765,-2140 222.235,-2140 222.235,-2104 291.765,-2104 291.765,-2140"/>
<text text-anchor="middle" x="257" y="-2117.6" font-family="Times,serif" font-size="11.00">AccountApi</text>
</g>
<!-- \\Api -->
<g id="node3" class="node"><title>\\Api</title>
<polygon fill="none" stroke="black" points="284,-2086 230,-2086 230,-2050 284,-2050 284,-2086"/>
<text text-anchor="middle" x="257" y="-2063.6" font-family="Times,serif" font-size="11.00">Api</text>
</g>
<!-- \\ApiFunctions -->
<g id="node4" class="node"><title>\\ApiFunctions</title>
<polygon fill="none" stroke="black" points="294.893,-2032 219.107,-2032 219.107,-1996 294.893,-1996 294.893,-2032"/>
<text text-anchor="middle" x="257" y="-2009.6" font-family="Times,serif" font-size="11.00">ApiFunctions</text>
</g>
<!-- \\ApiHelper -->
<g id="node5" class="node"><title>\\ApiHelper</title>
<polygon fill="none" stroke="black" points="288.429,-1978 225.571,-1978 225.571,-1942 288.429,-1942 288.429,-1978"/>
<text text-anchor="middle" x="257" y="-1955.6" font-family="Times,serif" font-size="11.00">ApiHelper</text>
</g>
<!-- \\AuthApi -->
<g id="node6" class="node"><title>\\AuthApi</title>
<polygon fill="none" stroke="black" points="284.002,-1924 229.998,-1924 229.998,-1888 284.002,-1888 284.002,-1924"/>
<text text-anchor="middle" x="257" y="-1901.6" font-family="Times,serif" font-size="11.00">AuthApi</text>
</g>
<!-- \\DeviceApi -->
<g id="node7" class="node"><title>\\DeviceApi</title>
<polygon fill="none" stroke="black" points="288.648,-1870 225.352,-1870 225.352,-1834 288.648,-1834 288.648,-1870"/>
<text text-anchor="middle" x="257" y="-1847.6" font-family="Times,serif" font-size="11.00">DeviceApi</text>
</g>
<!-- \\Date -->
<g id="node8" class="node"><title>\\Date</title>
<polygon fill="none" stroke="black" points="284,-1816 230,-1816 230,-1780 284,-1780 284,-1816"/>
<text text-anchor="middle" x="257" y="-1793.6" font-family="Times,serif" font-size="11.00">Date</text>
</g>
<!-- \\SystemApi -->
<g id="node9" class="node"><title>\\SystemApi</title>
<polygon fill="none" stroke="black" points="289.393,-1762 224.607,-1762 224.607,-1726 289.393,-1726 289.393,-1762"/>
<text text-anchor="middle" x="257" y="-1739.6" font-family="Times,serif" font-size="11.00">SystemApi</text>
</g>
<!-- \\Config -->
<g id="node10" class="node"><title>\\Config</title>
<polygon fill="none" stroke="black" points="284,-1708 230,-1708 230,-1672 284,-1672 284,-1708"/>
<text text-anchor="middle" x="257" y="-1685.6" font-family="Times,serif" font-size="11.00">Config</text>
</g>
<!-- \\DataFrame -->
<g id="node11" class="node"><title>\\DataFrame</title>
<polygon fill="none" stroke="black" points="289.366,-1654 224.634,-1654 224.634,-1618 289.366,-1618 289.366,-1654"/>
<text text-anchor="middle" x="257" y="-1631.6" font-family="Times,serif" font-size="11.00">DataFrame</text>
</g>
<!-- \\Device -->
<g id="node12" class="node"><title>\\Device</title>
<polygon fill="none" stroke="black" points="94.7035,-1465 33.2965,-1465 33.2965,-1429 94.7035,-1429 94.7035,-1465"/>
<text text-anchor="start" x="41.3984" y="-1449.2" font-family="Times,serif" font-size="11.00">«abstract»</text>
<text text-anchor="start" x="48.4265" y="-1436" font-family="Times,serif" font-size="11.00">Device</text>
</g>
<!-- \\FrameCounter -->
<g id="node13" class="node"><title>\\FrameCounter</title>
<polygon fill="none" stroke="black" points="296.541,-1600 217.459,-1600 217.459,-1564 296.541,-1564 296.541,-1600"/>
<text text-anchor="middle" x="257" y="-1577.6" font-family="Times,serif" font-size="11.00">FrameCounter</text>
</g>
<!-- \\HeatMeter -->
<g id="node14" class="node"><title>\\HeatMeter</title>
<polygon fill="none" stroke="black" points="288.529,-1546 225.471,-1546 225.471,-1510 288.529,-1510 288.529,-1546"/>
<text text-anchor="middle" x="257" y="-1523.6" font-family="Times,serif" font-size="11.00">HeatMeter</text>
</g>
<!-- \\HeatMeter&#45;&gt;\\Device -->
<g id="edge1" class="edge"><title>\\HeatMeter&#45;&gt;\\Device</title>
<path fill="none" stroke="black" d="M225.313,-1514.99C192.444,-1501.05 140.181,-1478.88 104.319,-1463.67"/>
<polygon fill="none" stroke="black" points="105.241,-1460.26 94.6685,-1459.58 102.508,-1466.71 105.241,-1460.26"/>
</g>
<!-- \\Output -->
<g id="node15" class="node"><title>\\Output</title>
<polygon fill="none" stroke="black" points="284,-1492 230,-1492 230,-1456 284,-1456 284,-1492"/>
<text text-anchor="middle" x="257" y="-1469.6" font-family="Times,serif" font-size="11.00">Output</text>
</g>
<!-- \\Output&#45;&gt;\\Device -->
<g id="edge2" class="edge"><title>\\Output&#45;&gt;\\Device</title>
<path fill="none" stroke="black" d="M229.843,-1470.3C197.624,-1465.75 142.559,-1457.96 105.013,-1452.66"/>
<polygon fill="none" stroke="black" points="105.313,-1449.16 94.9217,-1451.23 104.333,-1456.1 105.313,-1449.16"/>
</g>
<!-- \\Sensor -->
<g id="node16" class="node"><title>\\Sensor</title>
<polygon fill="none" stroke="black" points="284,-1438 230,-1438 230,-1402 284,-1402 284,-1438"/>
<text text-anchor="middle" x="257" y="-1415.6" font-family="Times,serif" font-size="11.00">Sensor</text>
</g>
<!-- \\Sensor&#45;&gt;\\Device -->
<g id="edge3" class="edge"><title>\\Sensor&#45;&gt;\\Device</title>
<path fill="none" stroke="black" d="M229.843,-1423.7C197.624,-1428.25 142.559,-1436.04 105.013,-1441.34"/>
<polygon fill="none" stroke="black" points="104.333,-1437.9 94.9217,-1442.77 105.313,-1444.84 104.333,-1437.9"/>
</g>
<!-- \\Separator -->
<g id="node17" class="node"><title>\\Separator</title>
<polygon fill="none" stroke="black" points="286.147,-1384 227.853,-1384 227.853,-1348 286.147,-1348 286.147,-1384"/>
<text text-anchor="middle" x="257" y="-1361.6" font-family="Times,serif" font-size="11.00">Separator</text>
</g>
<!-- \\SpeedStep -->
<g id="node18" class="node"><title>\\SpeedStep</title>
<polygon fill="none" stroke="black" points="288.44,-1330 225.56,-1330 225.56,-1294 288.44,-1294 288.44,-1330"/>
<text text-anchor="middle" x="257" y="-1307.6" font-family="Times,serif" font-size="11.00">SpeedStep</text>
</g>
<!-- \\SpeedStep&#45;&gt;\\Device -->
<g id="edge4" class="edge"><title>\\SpeedStep&#45;&gt;\\Device</title>
<path fill="none" stroke="black" d="M225.686,-1325.08C217.166,-1329.17 208.037,-1333.94 200,-1339 160.411,-1363.93 118.982,-1398.54 92.6311,-1421.8"/>
<polygon fill="none" stroke="black" points="90.0991,-1419.37 84.9561,-1428.63 94.753,-1424.6 90.0991,-1419.37"/>
</g>
<!-- \\Uploader -->
<g id="node19" class="node"><title>\\Uploader</title>
<polygon fill="none" stroke="black" points="285.428,-1276 228.572,-1276 228.572,-1240 285.428,-1240 285.428,-1276"/>
<text text-anchor="middle" x="257" y="-1253.6" font-family="Times,serif" font-size="11.00">Uploader</text>
</g>
<!-- \\DB -->
<g id="node20" class="node"><title>\\DB</title>
<polygon fill="none" stroke="black" points="284,-1222 230,-1222 230,-1186 284,-1186 284,-1222"/>
<text text-anchor="middle" x="257" y="-1199.6" font-family="Times,serif" font-size="11.00">DB</text>
</g>
<!-- \\DeviceRenderer -->
<g id="node21" class="node"><title>\\DeviceRenderer</title>
<polygon fill="none" stroke="black" points="107.958,-736 20.0418,-736 20.0418,-700 107.958,-700 107.958,-736"/>
<text text-anchor="start" x="41.3984" y="-720.2" font-family="Times,serif" font-size="11.00">«abstract»</text>
<text text-anchor="start" x="28.2715" y="-707" font-family="Times,serif" font-size="11.00">DeviceRenderer</text>
</g>
<!-- \\Highchart -->
<g id="node22" class="node"><title>\\Highchart</title>
<polygon fill="none" stroke="black" points="286.984,-520 227.016,-520 227.016,-484 286.984,-484 286.984,-520"/>
<text text-anchor="middle" x="257" y="-497.6" font-family="Times,serif" font-size="11.00">Highchart</text>
</g>
<!-- \\ArrayAccess -->
<g id="node44" class="node"><title>\\ArrayAccess</title>
<ellipse fill="none" stroke="black" cx="64" cy="-18" rx="63.6773" ry="18"/>
<text text-anchor="middle" x="64" y="-12.4" font-family="Times,serif" font-size="14.00" fill="gray">\ArrayAccess</text>
</g>
<!-- \\Highchart&#45;&gt;\\ArrayAccess -->
<g id="edge5" class="edge"><title>\\Highchart&#45;&gt;\\ArrayAccess</title>
<path fill="none" stroke="black" stroke-dasharray="1,5" d="M226.75,-494.01C216.83,-489.888 206.599,-483.812 200,-475 82.5344,-318.145 254.158,-189.953 128,-40 126.485,-38.1993 124.814,-36.5458 123.021,-35.0276"/>
<polygon fill="none" stroke="black" points="124.717,-31.9478 114.485,-29.1996 120.77,-37.7288 124.717,-31.9478"/>
</g>
<!-- \\HighchartJsExpr -->
<g id="node23" class="node"><title>\\HighchartJsExpr</title>
<polygon fill="none" stroke="black" points="301.928,-1114 212.072,-1114 212.072,-1078 301.928,-1078 301.928,-1114"/>
<text text-anchor="middle" x="257" y="-1091.6" font-family="Times,serif" font-size="11.00">HighchartJsExpr</text>
</g>
<!-- \\HighchartOption -->
<g id="node24" class="node"><title>\\HighchartOption</title>
<polygon fill="none" stroke="black" points="302.041,-466 211.959,-466 211.959,-430 302.041,-430 302.041,-466"/>
<text text-anchor="middle" x="257" y="-443.6" font-family="Times,serif" font-size="11.00">HighchartOption</text>
</g>
<!-- \\HighchartOption&#45;&gt;\\ArrayAccess -->
<g id="edge6" class="edge"><title>\\HighchartOption&#45;&gt;\\ArrayAccess</title>
<path fill="none" stroke="black" stroke-dasharray="1,5" d="M211.953,-432.007C207.421,-428.922 203.284,-425.283 200,-421 95.1388,-284.245 240.435,-170.599 128,-40 126.313,-38.041 124.442,-36.2564 122.432,-34.6306"/>
<polygon fill="none" stroke="black" points="124.353,-31.7049 114.079,-29.1146 120.495,-37.5461 124.353,-31.7049"/>
</g>
<!-- \\Installer -->
<g id="node25" class="node"><title>\\Installer</title>
<polygon fill="none" stroke="black" points="284,-1006 230,-1006 230,-970 284,-970 284,-1006"/>
<text text-anchor="middle" x="257" y="-983.6" font-family="Times,serif" font-size="11.00">Installer</text>
</g>
<!-- \\Loc -->
<g id="node26" class="node"><title>\\Loc</title>
<polygon fill="none" stroke="black" points="284,-952 230,-952 230,-916 284,-916 284,-952"/>
<text text-anchor="middle" x="257" y="-929.6" font-family="Times,serif" font-size="11.00">Loc</text>
</g>
<!-- \\BackupNotification -->
<g id="node27" class="node"><title>\\BackupNotification</title>
<polygon fill="none" stroke="black" points="308.152,-1168 205.848,-1168 205.848,-1132 308.152,-1132 308.152,-1168"/>
<text text-anchor="middle" x="257" y="-1145.6" font-family="Times,serif" font-size="11.00">BackupNotification</text>
</g>
<!-- \\Notification -->
<g id="node28" class="node"><title>\\Notification</title>
<polygon fill="none" stroke="black" points="98.0522,-1114 29.9478,-1114 29.9478,-1078 98.0522,-1078 98.0522,-1114"/>
<text text-anchor="start" x="41.3984" y="-1098.2" font-family="Times,serif" font-size="11.00">«abstract»</text>
<text text-anchor="start" x="37.7246" y="-1085" font-family="Times,serif" font-size="11.00">Notification</text>
</g>
<!-- \\BackupNotification&#45;&gt;\\Notification -->
<g id="edge7" class="edge"><title>\\BackupNotification&#45;&gt;\\Notification</title>
<path fill="none" stroke="black" d="M205.817,-1135.81C175.464,-1127.23 137.16,-1116.4 108.166,-1108.2"/>
<polygon fill="none" stroke="black" points="108.903,-1104.78 98.3277,-1105.42 106.998,-1111.51 108.903,-1104.78"/>
</g>
<!-- \\Notifier -->
<g id="node29" class="node"><title>\\Notifier</title>
<polygon fill="none" stroke="black" points="284,-844 230,-844 230,-808 284,-808 284,-844"/>
<text text-anchor="middle" x="257" y="-821.6" font-family="Times,serif" font-size="11.00">Notifier</text>
</g>
<!-- \\NoUploadNotification -->
<g id="node30" class="node"><title>\\NoUploadNotification</title>
<polygon fill="none" stroke="black" points="314.378,-1060 199.622,-1060 199.622,-1024 314.378,-1024 314.378,-1060"/>
<text text-anchor="middle" x="257" y="-1037.6" font-family="Times,serif" font-size="11.00">NoUploadNotification</text>
</g>
<!-- \\NoUploadNotification&#45;&gt;\\Notification -->
<g id="edge8" class="edge"><title>\\NoUploadNotification&#45;&gt;\\Notification</title>
<path fill="none" stroke="black" d="M199.727,-1057.91C170.454,-1066.19 135.231,-1076.14 108.142,-1083.8"/>
<polygon fill="none" stroke="black" points="106.858,-1080.53 98.1878,-1086.62 108.763,-1087.26 106.858,-1080.53"/>
</g>
<!-- \\Backup -->
<g id="node31" class="node"><title>\\Backup</title>
<polygon fill="none" stroke="black" points="284,-736 230,-736 230,-700 284,-700 284,-736"/>
<text text-anchor="middle" x="257" y="-713.6" font-family="Times,serif" font-size="11.00">Backup</text>
</g>
<!-- \\HeatMeters -->
<g id="node32" class="node"><title>\\HeatMeters</title>
<polygon fill="none" stroke="black" points="290.811,-898 223.189,-898 223.189,-862 290.811,-862 290.811,-898"/>
<text text-anchor="middle" x="257" y="-875.6" font-family="Times,serif" font-size="11.00">HeatMeters</text>
</g>
<!-- \\HeatMeters&#45;&gt;\\DeviceRenderer -->
<g id="edge9" class="edge"><title>\\HeatMeters&#45;&gt;\\DeviceRenderer</title>
<path fill="none" stroke="black" d="M223.265,-866.493C215.353,-862.622 207.129,-858.061 200,-853 154.79,-820.906 111.023,-773.115 86.1165,-743.843"/>
<polygon fill="none" stroke="black" points="88.7227,-741.504 79.606,-736.106 83.3667,-746.011 88.7227,-741.504"/>
</g>
<!-- \\Notifications -->
<g id="node33" class="node"><title>\\Notifications</title>
<polygon fill="none" stroke="black" points="293.332,-628 220.668,-628 220.668,-592 293.332,-592 293.332,-628"/>
<text text-anchor="middle" x="257" y="-605.6" font-family="Times,serif" font-size="11.00">Notifications</text>
</g>
<!-- \\Outputs -->
<g id="node34" class="node"><title>\\Outputs</title>
<polygon fill="none" stroke="black" points="284,-790 230,-790 230,-754 284,-754 284,-790"/>
<text text-anchor="middle" x="257" y="-767.6" font-family="Times,serif" font-size="11.00">Outputs</text>
</g>
<!-- \\Outputs&#45;&gt;\\DeviceRenderer -->
<g id="edge10" class="edge"><title>\\Outputs&#45;&gt;\\DeviceRenderer</title>
<path fill="none" stroke="black" d="M229.843,-764.605C201.173,-756.499 154.412,-743.279 118.003,-732.985"/>
<polygon fill="none" stroke="black" points="118.608,-729.519 108.032,-730.166 116.703,-736.255 118.608,-729.519"/>
</g>
<!-- \\Sensors -->
<g id="node35" class="node"><title>\\Sensors</title>
<polygon fill="none" stroke="black" points="284,-682 230,-682 230,-646 284,-646 284,-682"/>
<text text-anchor="middle" x="257" y="-659.6" font-family="Times,serif" font-size="11.00">Sensors</text>
</g>
<!-- \\Sensors&#45;&gt;\\DeviceRenderer -->
<g id="edge11" class="edge"><title>\\Sensors&#45;&gt;\\DeviceRenderer</title>
<path fill="none" stroke="black" d="M229.843,-671.395C201.173,-679.501 154.412,-692.721 118.003,-703.015"/>
<polygon fill="none" stroke="black" points="116.703,-699.745 108.032,-705.834 118.608,-706.481 116.703,-699.745"/>
</g>
<!-- \\SpeedSteps -->
<g id="node36" class="node"><title>\\SpeedSteps</title>
<polygon fill="none" stroke="black" points="290.22,-574 223.78,-574 223.78,-538 290.22,-538 290.22,-574"/>
<text text-anchor="middle" x="257" y="-551.6" font-family="Times,serif" font-size="11.00">SpeedSteps</text>
</g>
<!-- \\SpeedSteps&#45;&gt;\\DeviceRenderer -->
<g id="edge12" class="edge"><title>\\SpeedSteps&#45;&gt;\\DeviceRenderer</title>
<path fill="none" stroke="black" d="M223.558,-569.364C215.556,-573.265 207.217,-577.877 200,-583 154.79,-615.094 111.023,-662.885 86.1165,-692.157"/>
<polygon fill="none" stroke="black" points="83.3667,-689.989 79.606,-699.894 88.7227,-694.496 83.3667,-689.989"/>
</g>
<!-- \\Uninstaller -->
<g id="node37" class="node"><title>\\Uninstaller</title>
<polygon fill="none" stroke="black" points="289.377,-412 224.623,-412 224.623,-376 289.377,-376 289.377,-412"/>
<text text-anchor="middle" x="257" y="-389.6" font-family="Times,serif" font-size="11.00">Uninstaller</text>
</g>
<!-- \\Users -->
<g id="node38" class="node"><title>\\Users</title>
<polygon fill="none" stroke="black" points="284,-358 230,-358 230,-322 284,-322 284,-358"/>
<text text-anchor="middle" x="257" y="-335.6" font-family="Times,serif" font-size="11.00">Users</text>
</g>
<!-- \\Admin -->
<g id="node39" class="node"><title>\\Admin</title>
<polygon fill="none" stroke="black" points="284,-304 230,-304 230,-268 284,-268 284,-304"/>
<text text-anchor="middle" x="257" y="-281.6" font-family="Times,serif" font-size="11.00">Admin</text>
</g>
<!-- \\Login -->
<g id="node40" class="node"><title>\\Login</title>
<polygon fill="none" stroke="black" points="284,-250 230,-250 230,-214 284,-214 284,-250"/>
<text text-anchor="middle" x="257" y="-227.6" font-family="Times,serif" font-size="11.00">Login</text>
</g>
<!-- \\NotFound -->
<g id="node41" class="node"><title>\\NotFound</title>
<polygon fill="none" stroke="black" points="287.119,-196 226.881,-196 226.881,-160 287.119,-160 287.119,-196"/>
<text text-anchor="middle" x="257" y="-173.6" font-family="Times,serif" font-size="11.00">NotFound</text>
</g>
<!-- \\Status -->
<g id="node42" class="node"><title>\\Status</title>
<polygon fill="none" stroke="black" points="284,-142 230,-142 230,-106 284,-106 284,-142"/>
<text text-anchor="middle" x="257" y="-119.6" font-family="Times,serif" font-size="11.00">Status</text>
</g>
<!-- \\Renderer -->
<g id="node43" class="node"><title>\\Renderer</title>
<polygon fill="none" stroke="black" points="285.311,-88 228.689,-88 228.689,-52 285.311,-52 285.311,-88"/>
<text text-anchor="middle" x="257" y="-65.6" font-family="Times,serif" font-size="11.00">Renderer</text>
</g>
</g>
</svg>
