<?xml version="1.0" encoding="UTF-8" standalone="no"?>
<!DOCTYPE svg PUBLIC "-//W3C//DTD SVG 1.1//EN"
 "http://www.w3.org/Graphics/SVG/1.1/DTD/svg11.dtd">
<!-- Generated by graphviz version 2.30.1 (20130331.1233)
 -->
<!-- Title: G Pages: 1 -->
<svg width="384pt" height="1752pt"
 viewBox="0.00 0.00 384.00 1752.00" xmlns="http://www.w3.org/2000/svg" xmlns:xlink="http://www.w3.org/1999/xlink">
<g id="graph0" class="graph" transform="scale(1 1) rotate(0) translate(4 1748)">
<title>G</title>
<polygon fill="white" stroke="white" points="-4,5 -4,-1748 381,-1748 381,5 -4,5"/>
<g id="clust1" class="cluster"><title>cluster_global</title>
<path fill="none" stroke="gray" d="M20,-44C20,-44 356,-44 356,-44 362,-44 368,-50 368,-56 368,-56 368,-1724 368,-1724 368,-1730 362,-1736 356,-1736 356,-1736 20,-1736 20,-1736 14,-1736 8,-1730 8,-1724 8,-1724 8,-56 8,-56 8,-50 14,-44 20,-44"/>
<text text-anchor="middle" x="188" y="-1723.2" font-family="Times,serif" font-size="11.00" fill="gray">global</text>
</g>
<!-- \\AdminRenderer -->
<g id="node1" class="node"><title>\\AdminRenderer</title>
<g id="a_node1"><a xlink:href="include.AdminRenderer.class.html" xlink:title="«abstract»&lt;br/&gt;AdminRenderer" target="_parent">
<polygon fill="none" stroke="black" points="124.5,-695 19.5,-695 19.5,-659 124.5,-659 124.5,-695"/>
<text text-anchor="start" x="38" y="-680.7" font-family="Courier,monospace" font-size="11.00">«abstract»</text>
<text text-anchor="start" x="28" y="-669.7" font-family="Courier,monospace" font-size="11.00">AdminRenderer</text>
</a>
</g>
</g>
<!-- \\Config -->
<g id="node2" class="node"><title>\\Config</title>
<g id="a_node2"><a xlink:href="include.Config.class.html" xlink:title="Config" target="_parent">
<polygon fill="none" stroke="black" points="312.5,-1708 255.5,-1708 255.5,-1672 312.5,-1672 312.5,-1708"/>
<text text-anchor="middle" x="284" y="-1687.2" font-family="Courier,monospace" font-size="11.00">Config</text>
</a>
</g>
</g>
<!-- \\DataFrame -->
<g id="node3" class="node"><title>\\DataFrame</title>
<g id="a_node3"><a xlink:href="include.dataframe.DataFrame.class.html" xlink:title="DataFrame" target="_parent">
<polygon fill="none" stroke="black" points="322.5,-1654 245.5,-1654 245.5,-1618 322.5,-1618 322.5,-1654"/>
<text text-anchor="middle" x="284" y="-1633.2" font-family="Courier,monospace" font-size="11.00">DataFrame</text>
</a>
</g>
</g>
<!-- \\Device -->
<g id="node4" class="node"><title>\\Device</title>
<g id="a_node4"><a xlink:href="include.dataframe.Device.class.html" xlink:title="«abstract»&lt;br/&gt;Device" target="_parent">
<polygon fill="none" stroke="black" points="114.5,-1465 29.5,-1465 29.5,-1429 114.5,-1429 114.5,-1465"/>
<text text-anchor="start" x="38" y="-1450.7" font-family="Courier,monospace" font-size="11.00">«abstract»</text>
<text text-anchor="start" x="51.5" y="-1439.7" font-family="Courier,monospace" font-size="11.00">Device</text>
</a>
</g>
</g>
<!-- \\FrameCounter -->
<g id="node5" class="node"><title>\\FrameCounter</title>
<g id="a_node5"><a xlink:href="include.dataframe.FrameCounter.class.html" xlink:title="FrameCounter" target="_parent">
<polygon fill="none" stroke="black" points="333,-1600 235,-1600 235,-1564 333,-1564 333,-1600"/>
<text text-anchor="middle" x="284" y="-1579.2" font-family="Courier,monospace" font-size="11.00">FrameCounter</text>
</a>
</g>
</g>
<!-- \\HeatMeter -->
<g id="node6" class="node"><title>\\HeatMeter</title>
<g id="a_node6"><a xlink:href="include.dataframe.HeatMeter.class.html" xlink:title="HeatMeter" target="_parent">
<polygon fill="none" stroke="black" points="322.5,-1492 245.5,-1492 245.5,-1456 322.5,-1456 322.5,-1492"/>
<text text-anchor="middle" x="284" y="-1471.2" font-family="Courier,monospace" font-size="11.00">HeatMeter</text>
</a>
</g>
</g>
<!-- \\HeatMeter&#45;&gt;\\Device -->
<g id="edge1" class="edge"><title>\\HeatMeter&#45;&gt;\\Device</title>
<path fill="none" stroke="black" d="M245.456,-1469.17C211.811,-1464.85 162.141,-1458.46 124.737,-1453.65"/>
<polygon fill="none" stroke="black" points="124.901,-1450.14 114.536,-1452.34 124.008,-1457.09 124.901,-1450.14"/>
</g>
<!-- \\Output -->
<g id="node7" class="node"><title>\\Output</title>
<g id="a_node7"><a xlink:href="include.dataframe.Output.class.html" xlink:title="Output" target="_parent">
<polygon fill="none" stroke="black" points="312.5,-1438 255.5,-1438 255.5,-1402 312.5,-1402 312.5,-1438"/>
<text text-anchor="middle" x="284" y="-1417.2" font-family="Courier,monospace" font-size="11.00">Output</text>
</a>
</g>
</g>
<!-- \\Output&#45;&gt;\\Device -->
<g id="edge2" class="edge"><title>\\Output&#45;&gt;\\Device</title>
<path fill="none" stroke="black" d="M255.114,-1423.59C221.995,-1427.84 166.064,-1435.03 124.905,-1440.33"/>
<polygon fill="none" stroke="black" points="124.254,-1436.88 114.782,-1441.63 125.146,-1443.82 124.254,-1436.88"/>
</g>
<!-- \\Sensor -->
<g id="node8" class="node"><title>\\Sensor</title>
<g id="a_node8"><a xlink:href="include.dataframe.Sensor.class.html" xlink:title="Sensor" target="_parent">
<polygon fill="none" stroke="black" points="312.5,-1330 255.5,-1330 255.5,-1294 312.5,-1294 312.5,-1330"/>
<text text-anchor="middle" x="284" y="-1309.2" font-family="Courier,monospace" font-size="11.00">Sensor</text>
</a>
</g>
</g>
<!-- \\Sensor&#45;&gt;\\Device -->
<g id="edge3" class="edge"><title>\\Sensor&#45;&gt;\\Device</title>
<path fill="none" stroke="black" d="M255.332,-1319.56C240.748,-1324.13 222.854,-1330.69 208,-1339 166.697,-1362.11 125.056,-1397.73 99.1635,-1421.68"/>
<polygon fill="none" stroke="black" points="96.5611,-1419.32 91.6515,-1428.71 101.344,-1424.43 96.5611,-1419.32"/>
</g>
<!-- \\Separator -->
<g id="node9" class="node"><title>\\Separator</title>
<g id="a_node9"><a xlink:href="include.dataframe.Separator.class.html" xlink:title="Separator" target="_parent">
<polygon fill="none" stroke="black" points="322.5,-1384 245.5,-1384 245.5,-1348 322.5,-1348 322.5,-1384"/>
<text text-anchor="middle" x="284" y="-1363.2" font-family="Courier,monospace" font-size="11.00">Separator</text>
</a>
</g>
</g>
<!-- \\SpeedStep -->
<g id="node10" class="node"><title>\\SpeedStep</title>
<g id="a_node10"><a xlink:href="include.dataframe.SpeedStep.class.html" xlink:title="SpeedStep" target="_parent">
<polygon fill="none" stroke="black" points="322.5,-1546 245.5,-1546 245.5,-1510 322.5,-1510 322.5,-1546"/>
<text text-anchor="middle" x="284" y="-1525.2" font-family="Courier,monospace" font-size="11.00">SpeedStep</text>
</a>
</g>
</g>
<!-- \\SpeedStep&#45;&gt;\\Device -->
<g id="edge4" class="edge"><title>\\SpeedStep&#45;&gt;\\Device</title>
<path fill="none" stroke="black" d="M245.135,-1514.66C233.219,-1510.38 220.031,-1505.57 208,-1501 180.066,-1490.39 149.1,-1478.04 123.878,-1467.84"/>
<polygon fill="none" stroke="black" points="125.094,-1464.56 114.512,-1464.04 122.463,-1471.04 125.094,-1464.56"/>
</g>
<!-- \\Uploader -->
<g id="node11" class="node"><title>\\Uploader</title>
<g id="a_node11"><a xlink:href="include.dataframe.Uploader.class.html" xlink:title="Uploader" target="_parent">
<polygon fill="none" stroke="black" points="319.5,-1276 248.5,-1276 248.5,-1240 319.5,-1240 319.5,-1276"/>
<text text-anchor="middle" x="284" y="-1255.2" font-family="Courier,monospace" font-size="11.00">Uploader</text>
</a>
</g>
</g>
<!-- \\DB -->
<g id="node12" class="node"><title>\\DB</title>
<g id="a_node12"><a xlink:href="include.DB.class.html" xlink:title="DB" target="_parent">
<polygon fill="none" stroke="black" points="311,-1222 257,-1222 257,-1186 311,-1186 311,-1222"/>
<text text-anchor="middle" x="284" y="-1201.2" font-family="Courier,monospace" font-size="11.00">DB</text>
</a>
</g>
</g>
<!-- \\DeviceRenderer -->
<g id="node13" class="node"><title>\\DeviceRenderer</title>
<g id="a_node13"><a xlink:href="include.DeviceRenderer.class.html" xlink:title="«abstract»&lt;br/&gt;DeviceRenderer" target="_parent">
<polygon fill="none" stroke="black" points="128,-763 16,-763 16,-727 128,-727 128,-763"/>
<text text-anchor="start" x="38" y="-748.7" font-family="Courier,monospace" font-size="11.00">«abstract»</text>
<text text-anchor="start" x="24.5" y="-737.7" font-family="Courier,monospace" font-size="11.00">DeviceRenderer</text>
</a>
</g>
</g>
<!-- \\Highchart -->
<g id="node14" class="node"><title>\\Highchart</title>
<g id="a_node14"><a xlink:href="include.highcharts.Highchart.html" xlink:title="Highchart" target="_parent">
<polygon fill="none" stroke="black" points="322.5,-466 245.5,-466 245.5,-430 322.5,-430 322.5,-466"/>
<text text-anchor="middle" x="284" y="-445.2" font-family="Courier,monospace" font-size="11.00">Highchart</text>
</a>
</g>
</g>
<!-- \\ArrayAccess -->
<g id="node36" class="node"><title>\\ArrayAccess</title>
<ellipse fill="none" stroke="black" cx="72" cy="-18" rx="63.8893" ry="18"/>
<text text-anchor="middle" x="72" y="-14.3" font-family="Times,serif" font-size="14.00" fill="gray">\\ArrayAccess</text>
</g>
<!-- \\Highchart&#45;&gt;\\ArrayAccess -->
<g id="edge15" class="edge"><title>\\Highchart&#45;&gt;\\ArrayAccess</title>
<path fill="none" stroke="black" stroke-dasharray="1,5" d="M245.341,-442.442C231.739,-438.586 217.428,-432.057 208,-421 96.1919,-289.864 248.435,-170.599 136,-40 134.465,-38.2166 132.776,-36.5777 130.969,-35.0717"/>
<polygon fill="none" stroke="black" points="132.635,-31.9735 122.387,-29.2825 128.72,-37.7765 132.635,-31.9735"/>
</g>
<!-- \\HighchartJsExpr -->
<g id="node15" class="node"><title>\\HighchartJsExpr</title>
<g id="a_node15"><a xlink:href="include.highcharts.HighchartJsExpr.html" xlink:title="HighchartJsExpr" target="_parent">
<polygon fill="none" stroke="black" points="343,-1114 225,-1114 225,-1078 343,-1078 343,-1114"/>
<text text-anchor="middle" x="284" y="-1093.2" font-family="Courier,monospace" font-size="11.00">HighchartJsExpr</text>
</a>
</g>
</g>
<!-- \\HighchartOption -->
<g id="node16" class="node"><title>\\HighchartOption</title>
<g id="a_node16"><a xlink:href="include.highcharts.HighchartOption.html" xlink:title="HighchartOption" target="_parent">
<polygon fill="none" stroke="black" points="343,-520 225,-520 225,-484 343,-484 343,-520"/>
<text text-anchor="middle" x="284" y="-499.2" font-family="Courier,monospace" font-size="11.00">HighchartOption</text>
</a>
</g>
</g>
<!-- \\HighchartOption&#45;&gt;\\ArrayAccess -->
<g id="edge16" class="edge"><title>\\HighchartOption&#45;&gt;\\ArrayAccess</title>
<path fill="none" stroke="black" stroke-dasharray="1,5" d="M224.802,-488.422C218.436,-484.925 212.606,-480.529 208,-475 82.5626,-324.444 262.158,-189.953 136,-40 134.485,-38.1993 132.814,-36.5458 131.021,-35.0276"/>
<polygon fill="none" stroke="black" points="132.717,-31.9478 122.485,-29.1996 128.77,-37.7288 132.717,-31.9478"/>
</g>
<!-- \\Installer -->
<g id="node17" class="node"><title>\\Installer</title>
<g id="a_node17"><a xlink:href="include.Installer.class.html" xlink:title="Installer" target="_parent">
<polygon fill="none" stroke="black" points="322.5,-1006 245.5,-1006 245.5,-970 322.5,-970 322.5,-1006"/>
<text text-anchor="middle" x="284" y="-985.2" font-family="Courier,monospace" font-size="11.00">Installer</text>
</a>
</g>
</g>
<!-- \\Loc -->
<g id="node18" class="node"><title>\\Loc</title>
<g id="a_node18"><a xlink:href="include.Loc.class.html" xlink:title="Loc" target="_parent">
<polygon fill="none" stroke="black" points="311,-952 257,-952 257,-916 311,-916 311,-952"/>
<text text-anchor="middle" x="284" y="-931.2" font-family="Courier,monospace" font-size="11.00">Loc</text>
</a>
</g>
</g>
<!-- \\BackupNotification -->
<g id="node19" class="node"><title>\\BackupNotification</title>
<g id="a_node19"><a xlink:href="include.notifications.BackupNotification.class.html" xlink:title="BackupNotification" target="_parent">
<polygon fill="none" stroke="black" points="353,-1060 215,-1060 215,-1024 353,-1024 353,-1060"/>
<text text-anchor="middle" x="284" y="-1039.2" font-family="Courier,monospace" font-size="11.00">BackupNotification</text>
</a>
</g>
</g>
<!-- \\Notification -->
<g id="node20" class="node"><title>\\Notification</title>
<g id="a_node20"><a xlink:href="include.notifications.Notification.class.html" xlink:title="«abstract»&lt;br/&gt;Notification" target="_parent">
<polygon fill="none" stroke="black" points="121.5,-1114 22.5,-1114 22.5,-1078 121.5,-1078 121.5,-1114"/>
<text text-anchor="start" x="38" y="-1099.7" font-family="Courier,monospace" font-size="11.00">«abstract»</text>
<text text-anchor="start" x="31" y="-1088.7" font-family="Courier,monospace" font-size="11.00">Notification</text>
</a>
</g>
</g>
<!-- \\BackupNotification&#45;&gt;\\Notification -->
<g id="edge5" class="edge"><title>\\BackupNotification&#45;&gt;\\Notification</title>
<path fill="none" stroke="black" d="M214.819,-1059.53C187.964,-1066.44 157.43,-1074.29 131.59,-1080.93"/>
<polygon fill="none" stroke="black" points="130.381,-1077.63 121.568,-1083.51 132.124,-1084.41 130.381,-1077.63"/>
</g>
<!-- \\Notifier -->
<g id="node21" class="node"><title>\\Notifier</title>
<g id="a_node21"><a xlink:href="include.notifications.Notifier.class.html" xlink:title="Notifier" target="_parent">
<polygon fill="none" stroke="black" points="319.5,-844 248.5,-844 248.5,-808 319.5,-808 319.5,-844"/>
<text text-anchor="middle" x="284" y="-823.2" font-family="Courier,monospace" font-size="11.00">Notifier</text>
</a>
</g>
</g>
<!-- \\NoUploadNotification -->
<g id="node22" class="node"><title>\\NoUploadNotification</title>
<g id="a_node22"><a xlink:href="include.notifications.NoUploadNotification.class.html" xlink:title="NoUploadNotification" target="_parent">
<polygon fill="none" stroke="black" points="360,-1168 208,-1168 208,-1132 360,-1132 360,-1168"/>
<text text-anchor="middle" x="284" y="-1147.2" font-family="Courier,monospace" font-size="11.00">NoUploadNotification</text>
</a>
</g>
</g>
<!-- \\NoUploadNotification&#45;&gt;\\Notification -->
<g id="edge6" class="edge"><title>\\NoUploadNotification&#45;&gt;\\Notification</title>
<path fill="none" stroke="black" d="M212.781,-1131.94C186.36,-1125.15 156.627,-1117.5 131.397,-1111.02"/>
<polygon fill="none" stroke="black" points="132.163,-1107.6 121.606,-1108.5 130.42,-1114.38 132.163,-1107.6"/>
</g>
<!-- \\Backup -->
<g id="node23" class="node"><title>\\Backup</title>
<g id="a_node23"><a xlink:href="include.pages.admin.Backup.class.html" xlink:title="Backup" target="_parent">
<polygon fill="none" stroke="black" points="312.5,-736 255.5,-736 255.5,-700 312.5,-700 312.5,-736"/>
<text text-anchor="middle" x="284" y="-715.2" font-family="Courier,monospace" font-size="11.00">Backup</text>
</a>
</g>
</g>
<!-- \\HeatMeters -->
<g id="node24" class="node"><title>\\HeatMeters</title>
<g id="a_node24"><a xlink:href="include.pages.HeatMeters.class.html" xlink:title="HeatMeters" target="_parent">
<polygon fill="none" stroke="black" points="326,-790 242,-790 242,-754 326,-754 326,-790"/>
<text text-anchor="middle" x="284" y="-769.2" font-family="Courier,monospace" font-size="11.00">HeatMeters</text>
</a>
</g>
</g>
<!-- \\HeatMeters&#45;&gt;\\AdminRenderer -->
<g id="edge7" class="edge"><title>\\HeatMeters&#45;&gt;\\AdminRenderer</title>
<path fill="none" stroke="black" d="M241.779,-758.173C230.705,-754.184 218.806,-749.647 208,-745 176.19,-731.322 141.309,-713.68 114.972,-699.793"/>
<polygon fill="none" stroke="black" points="116.506,-696.645 106.031,-695.051 113.225,-702.829 116.506,-696.645"/>
</g>
<!-- \\HeatMeters&#45;&gt;\\DeviceRenderer -->
<g id="edge11" class="edge"><title>\\HeatMeters&#45;&gt;\\DeviceRenderer</title>
<path fill="none" stroke="black" d="M241.761,-766.698C212.317,-762.912 172.108,-757.742 138.323,-753.399"/>
<polygon fill="none" stroke="black" points="138.428,-749.883 128.064,-752.08 137.536,-756.826 138.428,-749.883"/>
</g>
<!-- \\Notifications -->
<g id="node25" class="node"><title>\\Notifications</title>
<g id="a_node25"><a xlink:href="include.pages.admin.Notifications.class.html" xlink:title="Notifications" target="_parent">
<polygon fill="none" stroke="black" points="336,-628 232,-628 232,-592 336,-592 336,-628"/>
<text text-anchor="middle" x="284" y="-607.2" font-family="Courier,monospace" font-size="11.00">Notifications</text>
</a>
</g>
</g>
<!-- \\Outputs -->
<g id="node26" class="node"><title>\\Outputs</title>
<g id="a_node26"><a xlink:href="include.pages.Outputs.class.html" xlink:title="Outputs" target="_parent">
<polygon fill="none" stroke="black" points="316,-682 252,-682 252,-646 316,-646 316,-682"/>
<text text-anchor="middle" x="284" y="-661.2" font-family="Courier,monospace" font-size="11.00">Outputs</text>
</a>
</g>
</g>
<!-- \\Outputs&#45;&gt;\\AdminRenderer -->
<g id="edge8" class="edge"><title>\\Outputs&#45;&gt;\\AdminRenderer</title>
<path fill="none" stroke="black" d="M251.561,-665.946C220.786,-667.851 173.068,-670.805 134.701,-673.18"/>
<polygon fill="none" stroke="black" points="134.423,-669.691 124.659,-673.802 134.856,-676.677 134.423,-669.691"/>
</g>
<!-- \\Outputs&#45;&gt;\\DeviceRenderer -->
<g id="edge12" class="edge"><title>\\Outputs&#45;&gt;\\DeviceRenderer</title>
<path fill="none" stroke="black" d="M251.894,-674.924C238.367,-679.745 222.36,-685.545 208,-691 181.022,-701.248 151.216,-713.112 126.489,-723.106"/>
<polygon fill="none" stroke="black" points="124.883,-719.98 116.928,-726.978 127.511,-726.468 124.883,-719.98"/>
</g>
<!-- \\Sensors -->
<g id="node27" class="node"><title>\\Sensors</title>
<g id="a_node27"><a xlink:href="include.pages.Sensors.class.html" xlink:title="Sensors" target="_parent">
<polygon fill="none" stroke="black" points="316,-574 252,-574 252,-538 316,-538 316,-574"/>
<text text-anchor="middle" x="284" y="-553.2" font-family="Courier,monospace" font-size="11.00">Sensors</text>
</a>
</g>
</g>
<!-- \\Sensors&#45;&gt;\\AdminRenderer -->
<g id="edge9" class="edge"><title>\\Sensors&#45;&gt;\\AdminRenderer</title>
<path fill="none" stroke="black" d="M251.943,-565.143C238.134,-569.72 221.893,-575.822 208,-583 169.765,-602.755 129.767,-631.823 103.329,-652.396"/>
<polygon fill="none" stroke="black" points="100.939,-649.822 95.2409,-658.754 105.266,-655.325 100.939,-649.822"/>
</g>
<!-- \\Sensors&#45;&gt;\\DeviceRenderer -->
<g id="edge13" class="edge"><title>\\Sensors&#45;&gt;\\DeviceRenderer</title>
<path fill="none" stroke="black" d="M251.724,-562.123C237.229,-566.171 220.49,-572.696 208,-583 159.728,-622.823 179.352,-658.871 136,-704 129.957,-710.291 122.775,-716.092 115.46,-721.229"/>
<polygon fill="none" stroke="black" points="113.257,-718.491 106.872,-726.946 117.136,-724.318 113.257,-718.491"/>
</g>
<!-- \\SpeedSteps -->
<g id="node28" class="node"><title>\\SpeedSteps</title>
<g id="a_node28"><a xlink:href="include.pages.SpeedSteps.class.html" xlink:title="SpeedSteps" target="_parent">
<polygon fill="none" stroke="black" points="326,-898 242,-898 242,-862 326,-862 326,-898"/>
<text text-anchor="middle" x="284" y="-877.2" font-family="Courier,monospace" font-size="11.00">SpeedSteps</text>
</a>
</g>
</g>
<!-- \\SpeedSteps&#45;&gt;\\AdminRenderer -->
<g id="edge10" class="edge"><title>\\SpeedSteps&#45;&gt;\\AdminRenderer</title>
<path fill="none" stroke="black" d="M241.952,-871.211C230.023,-867.16 217.629,-861.33 208,-853 156.573,-808.511 181.947,-768.128 136,-718 130.169,-711.639 123.147,-705.828 115.939,-700.708"/>
<polygon fill="none" stroke="black" points="117.707,-697.68 107.451,-695.024 113.812,-703.497 117.707,-697.68"/>
</g>
<!-- \\SpeedSteps&#45;&gt;\\DeviceRenderer -->
<g id="edge14" class="edge"><title>\\SpeedSteps&#45;&gt;\\DeviceRenderer</title>
<path fill="none" stroke="black" d="M241.835,-867.922C230.534,-863.881 218.507,-858.879 208,-853 166.697,-829.889 125.056,-794.272 99.1635,-770.325"/>
<polygon fill="none" stroke="black" points="101.344,-767.572 91.6515,-763.294 96.5611,-772.683 101.344,-767.572"/>
</g>
<!-- \\Uninstaller -->
<g id="node29" class="node"><title>\\Uninstaller</title>
<g id="a_node29"><a xlink:href="include.pages.admin.Uninstaller.class.html" xlink:title="Uninstaller" target="_parent">
<polygon fill="none" stroke="black" points="329.5,-412 238.5,-412 238.5,-376 329.5,-376 329.5,-412"/>
<text text-anchor="middle" x="284" y="-391.2" font-family="Courier,monospace" font-size="11.00">Uninstaller</text>
</a>
</g>
</g>
<!-- \\Users -->
<g id="node30" class="node"><title>\\Users</title>
<g id="a_node30"><a xlink:href="include.pages.admin.Users.class.html" xlink:title="Users" target="_parent">
<polygon fill="none" stroke="black" points="311,-358 257,-358 257,-322 311,-322 311,-358"/>
<text text-anchor="middle" x="284" y="-337.2" font-family="Courier,monospace" font-size="11.00">Users</text>
</a>
</g>
</g>
<!-- \\Admin -->
<g id="node31" class="node"><title>\\Admin</title>
<g id="a_node31"><a xlink:href="include.pages.Admin.class.html" xlink:title="Admin" target="_parent">
<polygon fill="none" stroke="black" points="311,-304 257,-304 257,-268 311,-268 311,-304"/>
<text text-anchor="middle" x="284" y="-283.2" font-family="Courier,monospace" font-size="11.00">Admin</text>
</a>
</g>
</g>
<!-- \\Login -->
<g id="node32" class="node"><title>\\Login</title>
<g id="a_node32"><a xlink:href="include.pages.Login.class.html" xlink:title="Login" target="_parent">
<polygon fill="none" stroke="black" points="311,-250 257,-250 257,-214 311,-214 311,-250"/>
<text text-anchor="middle" x="284" y="-229.2" font-family="Courier,monospace" font-size="11.00">Login</text>
</a>
</g>
</g>
<!-- \\NotFound -->
<g id="node33" class="node"><title>\\NotFound</title>
<g id="a_node33"><a xlink:href="include.pages.NotFound.class.html" xlink:title="NotFound" target="_parent">
<polygon fill="none" stroke="black" points="319.5,-196 248.5,-196 248.5,-160 319.5,-160 319.5,-196"/>
<text text-anchor="middle" x="284" y="-175.2" font-family="Courier,monospace" font-size="11.00">NotFound</text>
</a>
</g>
</g>
<!-- \\Status -->
<g id="node34" class="node"><title>\\Status</title>
<g id="a_node34"><a xlink:href="include.pages.Status.class.html" xlink:title="Status" target="_parent">
<polygon fill="none" stroke="black" points="312.5,-142 255.5,-142 255.5,-106 312.5,-106 312.5,-142"/>
<text text-anchor="middle" x="284" y="-121.2" font-family="Courier,monospace" font-size="11.00">Status</text>
</a>
</g>
</g>
<!-- \\Renderer -->
<g id="node35" class="node"><title>\\Renderer</title>
<g id="a_node35"><a xlink:href="include.Renderer.class.html" xlink:title="Renderer" target="_parent">
<polygon fill="none" stroke="black" points="319.5,-88 248.5,-88 248.5,-52 319.5,-52 319.5,-88"/>
<text text-anchor="middle" x="284" y="-67.2" font-family="Courier,monospace" font-size="11.00">Renderer</text>
</a>
</g>
</g>
</g>
</svg>
